<?xml version="1.0" encoding="UTF-8"?>
<svg xmlns="http://www.w3.org/2000/svg">
  <defs>
    <!-- Playlist icon -->
    <symbol id="icon-playlist" viewBox="0 0 24 24">
      <path d="M3 10h11v2H3zm0-4h11v2H3zm0 8h7v2H3zm13-1v8l6-4z"/>
    </symbol>
    
    <!-- Music note icon -->
    <symbol id="icon-music" viewBox="0 0 24 24">
      <path d="M12 3v10.55c-.59-.34-1.27-.55-2-.55-2.21 0-4 1.79-4 4s1.79 4 4 4 4-1.79 4-4V7h4V3h-6z"/>
    </symbol>
    
    <!-- Heart icon -->
    <symbol id="icon-heart" viewBox="0 0 24 24">
      <path d="M12 21.35l-1.45-1.32C5.4 15.36 2 12.28 2 8.5 2 5.42 4.42 3 7.5 3c1.74 0 3.41.81 4.5 2.09C13.09 3.81 14.76 3 16.5 3 19.58 3 22 5.42 22 8.5c0 3.78-3.4 6.86-8.55 11.54L12 21.35z"/>
    </symbol>
    
    <!-- Clock icon -->
    <symbol id="icon-clock" viewBox="0 0 24 24">
      <path d="M11.99 2C6.47 2 2 6.48 2 12s4.47 10 9.99 10C17.52 22 22 17.52 22 12S17.52 2 11.99 2zM12 20c-4.42 0-8-3.58-8-8s3.58-8 8-8 8 3.58 8 8-3.58 8-8 8zm.5-13H11v6l5.25 3.15.75-1.23-4.5-2.67z"/>
    </symbol>
    
    <!-- Share icon -->
    <symbol id="icon-share" viewBox="0 0 24 24">
      <path d="M18 16.08c-.76 0-1.44.3-1.96.77L8.91 12.7c.05-.23.09-.46.09-.7s-.04-.47-.09-.7l7.05-4.11c.54.5 1.25.81 2.04.81 1.66 0 3-1.34 3-3s-1.34-3-3-3-3 1.34-3 3c0 .24.04.47.09.7L8.04 9.81C7.5 9.31 6.79 9 6 9c-1.66 0-3 1.34-3 3s1.34 3 3 3c.79 0 1.5-.31 2.04-.81l7.12 4.16c-.05.21-.08.43-.08.65 0 1.61 1.31 2.92 2.92 2.92 1.61 0 2.92-1.31 2.92-2.92s-1.31-2.92-2.92-2.92z"/>
    </symbol>
  </defs>
</svg> 